<svg xmlns="http://www.w3.org/2000/svg" width="26" height="15" viewBox="0 0 26 15">
  <metadata><?xpacket begin="﻿" id="W5M0MpCehiHzreSzNTczkc9d"?>
<x:xmpmeta xmlns:x="adobe:ns:meta/" x:xmptk="Adobe XMP Core 5.6-c142 79.160924, 2017/07/13-01:06:39        ">
   <rdf:RDF xmlns:rdf="http://www.w3.org/1999/02/22-rdf-syntax-ns#">
      <rdf:Description rdf:about=""/>
   </rdf:RDF>
</x:xmpmeta>
                                                                                                    
                                                                                                    
                                                                                                    
                                                                                                    
                                                                                                    
                                                                                                    
                                                                                                    
                                                                                                    
                                                                                                    
                                                                                                    
                                                                                                    
                                                                                                    
                                                                                                    
                                                                                                    
                                                                                                    
                                                                                                    
                                                                                                    
                                                                                                    
                                                                                                    
                                                                                                    
                           
<?xpacket end="w"?></metadata>
<defs>
    <style>
      .cls-1 {
        fill: #90ae1b;
        fill-rule: evenodd;
      }
    </style>
  </defs>
  <path id="Forma_1_копия_2" data-name="Forma 1 копия 2" class="cls-1" d="M885,1503.39c0-3.66-3.805-6.62-8.5-6.62h-0.251a7.275,7.275,0,0,1,2.944,5.65c0,3.12-2.27,5.83-5.594,7.19a10.919,10.919,0,0,0,2.9.39,10.14,10.14,0,0,0,5.1-1.32l3.083,1.32-1.2-2.84A5.634,5.634,0,0,0,885,1503.39Zm-9.705-6.15a10.935,10.935,0,0,0-6.808-2.24c-5.24,0-9.487,3.31-9.487,7.39a6.308,6.308,0,0,0,1.7,4.21l-1.341,3.17,3.441-1.48a11.283,11.283,0,0,0,5.691,1.48,11.563,11.563,0,0,0,4.392-.84c3.029-1.23,5.1-3.7,5.1-6.54A6.638,6.638,0,0,0,875.294,1497.24Z" transform="translate(-859 -1495)"/>
</svg>
