<svg xmlns="http://www.w3.org/2000/svg" width="14" height="15" viewBox="0 0 14 15">
  <metadata><?xpacket begin="﻿" id="W5M0MpCehiHzreSzNTczkc9d"?>
<x:xmpmeta xmlns:x="adobe:ns:meta/" x:xmptk="Adobe XMP Core 5.6-c142 79.160924, 2017/07/13-01:06:39        ">
   <rdf:RDF xmlns:rdf="http://www.w3.org/1999/02/22-rdf-syntax-ns#">
      <rdf:Description rdf:about=""/>
   </rdf:RDF>
</x:xmpmeta>
                                                                                                    
                                                                                                    
                                                                                                    
                                                                                                    
                                                                                                    
                                                                                                    
                                                                                                    
                                                                                                    
                                                                                                    
                                                                                                    
                                                                                                    
                                                                                                    
                                                                                                    
                                                                                                    
                                                                                                    
                                                                                                    
                                                                                                    
                                                                                                    
                                                                                                    
                                                                                                    
                           
<?xpacket end="w"?></metadata>
<defs>
    <style>
      .cls-1 {
        fill: #fff;
        fill-rule: evenodd;
      }
    </style>
  </defs>
  <path class="cls-1" d="M1004.82,1503.33l-0.22-.31a1.01,1.01,0,0,1,0-1.14l0.21-.31a1,1,0,0,0-.32-1.42l-0.33-.18a1.021,1.021,0,0,1-.48-1.03l0.07-.38a0.972,0.972,0,0,0-.88-1.14l-0.37-.01a0.933,0.933,0,0,1-.85-0.71l-0.1-.37a0.923,0.923,0,0,0-1.26-.62l-0.339.15a0.888,0.888,0,0,1-1.062-.25l-0.243-.28a0.9,0.9,0,0,0-1.4.01l-0.24.29a0.908,0.908,0,0,1-1.055.26l-0.339-.15a0.924,0.924,0,0,0-1.252.65l-0.1.37a0.934,0.934,0,0,1-.844.71l-0.365.03a0.964,0.964,0,0,0-.862,1.15l0.067,0.37a0.988,0.988,0,0,1-.463,1.03l-0.321.19a1,1,0,0,0-.3,1.43l0.216,0.31a1.017,1.017,0,0,1,.009,1.14l-0.211.31a1.007,1.007,0,0,0,.321,1.43l0.324,0.18a0.988,0.988,0,0,1,.477,1.02l-0.061.38a0.965,0.965,0,0,0,.88,1.14l0.364,0.02a0.928,0.928,0,0,1,.853.7l0.1,0.37a0.92,0.92,0,0,0,1.261.63l0.335-.16a0.917,0.917,0,0,1,1.062.25l0.243,0.29a0.9,0.9,0,0,0,1.393-.02l0.24-.28a0.9,0.9,0,0,1,1.053-.27l0.34,0.15a0.919,0.919,0,0,0,1.25-.65l0.1-.37a0.924,0.924,0,0,1,.84-0.71l0.37-.03a0.962,0.962,0,0,0,.86-1.15l-0.07-.37a0.991,0.991,0,0,1,.47-1.03l0.32-.19A1,1,0,0,0,1004.82,1503.33Zm-5.1,1.66a1.947,1.947,0,0,1-1,.68,0.286,0.286,0,0,0-.243.33c0.008,0.19,0,.37,0,0.56a0.227,0.227,0,0,1-.237.26h-0.573a0.247,0.247,0,0,1-.249-0.28c0-.13,0-0.27,0-0.4,0-.3-0.011-0.32-0.286-0.36a3.317,3.317,0,0,1-1.018-.31,0.313,0.313,0,0,1-.206-0.47c0.055-.21.107-0.42,0.171-0.62,0.072-.24.133-0.27,0.341-0.16a3.057,3.057,0,0,0,1.131.36,1.359,1.359,0,0,0,.744-0.1,0.626,0.626,0,0,0,.138-1.07,1.764,1.764,0,0,0-.422-0.26,8.609,8.609,0,0,1-1.157-.55,1.723,1.723,0,0,1-.925-1.64,1.8,1.8,0,0,1,1.258-1.68c0.309-.11.309-0.11,0.312-0.45v-0.34c0.006-.26.046-0.3,0.289-0.31h0.226c0.515,0,.515,0,0.518.54,0,0.39,0,.39.364,0.45a2.856,2.856,0,0,1,.8.25,0.253,0.253,0,0,1,.154.33c-0.064.23-.125,0.47-0.2,0.7s-0.133.25-.336,0.15a2.444,2.444,0,0,0-1.27-.27,0.994,0.994,0,0,0-.338.08,0.508,0.508,0,0,0-.118.89,2.315,2.315,0,0,0,.552.33c0.342,0.15.683,0.29,1.007,0.47A1.963,1.963,0,0,1,999.722,1504.99Z" transform="translate(-991 -1495)"/>
</svg>
