<svg xmlns="http://www.w3.org/2000/svg" width="300" height="300" viewBox="0 0 300 300">
  <metadata><?xpacket begin="﻿" id="W5M0MpCehiHzreSzNTczkc9d"?>
<x:xmpmeta xmlns:x="adobe:ns:meta/" x:xmptk="Adobe XMP Core 5.6-c142 79.160924, 2017/07/13-01:06:39        ">
   <rdf:RDF xmlns:rdf="http://www.w3.org/1999/02/22-rdf-syntax-ns#">
      <rdf:Description rdf:about=""/>
   </rdf:RDF>
</x:xmpmeta>
                                                                                                    
                                                                                                    
                                                                                                    
                                                                                                    
                                                                                                    
                                                                                                    
                                                                                                    
                                                                                                    
                                                                                                    
                                                                                                    
                                                                                                    
                                                                                                    
                                                                                                    
                                                                                                    
                                                                                                    
                                                                                                    
                                                                                                    
                                                                                                    
                                                                                                    
                                                                                                    
                           
<?xpacket end="w"?></metadata>
<defs>
    <style>
      .cls-1 {
        fill: #fff;
        fill-rule: evenodd;
      }
    </style>
  </defs>
  <path id="Forma_1" data-name="Forma 1" class="cls-1" d="M14.871,113.758C34.956,39.191,112.253-5.22,187.216,14.777,224.5,24.685,256.9,52.515,275.571,90.085l-28.534-7.62-2.605,9.668,38.839,10.352a5.09,5.09,0,0,0,1.3.17,5.214,5.214,0,0,0,2.525-.672,4.988,4.988,0,0,0,2.339-3.053l10.407-38.637-9.708-2.574L283.3,83.081C263.153,44.259,229.023,15.551,189.821,5.1,109.547-16.289,26.671,31.278,5.163,111.172A149.249,149.249,0,0,0-.017,150H10.037A139.394,139.394,0,0,1,14.871,113.758ZM289.935,150a139.55,139.55,0,0,1-4.824,36.212C265.027,260.771,187.73,305.181,112.763,285.2c-37.279-9.93-69.684-37.738-88.355-75.305L52.949,217.5l2.6-9.668-38.84-10.35a5.052,5.052,0,0,0-3.81.514,4.971,4.971,0,0,0-2.343,3.038l-10.4,38.65,9.712,2.561,6.821-25.359c20.142,38.82,54.272,67.539,93.474,77.97A150.526,150.526,0,0,0,149.142,300c66.575,0,127.654-44.276,145.667-111.186A149.4,149.4,0,0,0,299.986,150H289.935Z"/>
</svg>
