<svg xmlns="http://www.w3.org/2000/svg" width="15" height="15" viewBox="0 0 15 15">
  <metadata><?xpacket begin="﻿" id="W5M0MpCehiHzreSzNTczkc9d"?>
<x:xmpmeta xmlns:x="adobe:ns:meta/" x:xmptk="Adobe XMP Core 5.6-c142 79.160924, 2017/07/13-01:06:39        ">
   <rdf:RDF xmlns:rdf="http://www.w3.org/1999/02/22-rdf-syntax-ns#">
      <rdf:Description rdf:about=""/>
   </rdf:RDF>
</x:xmpmeta>
                                                                                                    
                                                                                                    
                                                                                                    
                                                                                                    
                                                                                                    
                                                                                                    
                                                                                                    
                                                                                                    
                                                                                                    
                                                                                                    
                                                                                                    
                                                                                                    
                                                                                                    
                                                                                                    
                                                                                                    
                                                                                                    
                                                                                                    
                                                                                                    
                                                                                                    
                                                                                                    
                           
<?xpacket end="w"?></metadata>
<defs>
    <style>
      .cls-1 {
        fill: #90ae1b;
        fill-rule: evenodd;
      }
    </style>
  </defs>
  <path id="Forma_1_копия_3" data-name="Forma 1 копия 3" class="cls-1" d="M803.5,1496a7.5,7.5,0,1,0,7.5,7.5A7.512,7.512,0,0,0,803.5,1496Zm0,10.84c-3.5,0-5.394-3.27-5.394-3.27s1.89-3.27,5.394-3.27,5.394,3.27,5.394,3.27S807.005,1506.84,803.5,1506.84Zm0-6.06a2.79,2.79,0,1,0,2.789,2.79A2.792,2.792,0,0,0,803.5,1500.78Zm0,4.67a1.88,1.88,0,1,1,1.883-1.88A1.881,1.881,0,0,1,803.5,1505.45Zm0.694-1.76a0.68,0.68,0,0,1-.672-0.68,0.671,0.671,0,0,1,.564-0.66,1.431,1.431,0,0,0-.586-0.14,1.36,1.36,0,1,0,1.358,1.36,1.3,1.3,0,0,0-.04-0.31A0.674,0.674,0,0,1,804.194,1503.69Z" transform="translate(-796 -1496)"/>
</svg>
